<?xml version="1.0" encoding="iso-8859-1"?>
<!-- Generator: Adobe Illustrator 19.0.0, SVG Export Plug-In . SVG Version: 6.00 Build 0)  -->
<svg version="1.1" id="Capa_1" xmlns="http://www.w3.org/2000/svg" xmlns:xlink="http://www.w3.org/1999/xlink" x="0px" y="0px"
	 viewBox="0 0 438.857 438.857" style="enable-background:new 0 0 438.857 438.857;" xml:space="preserve">
<path style="fill:#4DCFE0;" d="M219.429,0C98.22,0,0,98.22,0,219.429s98.22,219.429,219.429,219.429s219.429-98.22,219.429-219.429
	S340.637,0,219.429,0z"/>
<path style="fill:#00BBD3;" d="M308.245,203.755h-73.143v-73.143c0-8.882-6.792-15.673-15.673-15.673
	c-8.882,0-15.673,6.792-15.673,15.673v73.143h-73.143c-8.882,0-15.673,6.792-15.673,15.673c0,8.882,6.792,15.673,15.673,15.673
	h73.143v73.143c0,8.882,6.792,15.673,15.673,15.673c8.882,0,15.673-6.792,15.673-15.673v-73.143h73.143
	c8.882,0,15.673-6.792,15.673-15.673C323.918,210.547,317.126,203.755,308.245,203.755z"/>
<g>
</g>
<g>
</g>
<g>
</g>
<g>
</g>
<g>
</g>
<g>
</g>
<g>
</g>
<g>
</g>
<g>
</g>
<g>
</g>
<g>
</g>
<g>
</g>
<g>
</g>
<g>
</g>
<g>
</g>
</svg>
