<?xml version="1.0" encoding="iso-8859-1"?>
<!-- Generator: Adobe Illustrator 19.0.0, SVG Export Plug-In . SVG Version: 6.00 Build 0)  -->
<svg version="1.1" id="Capa_1" xmlns="http://www.w3.org/2000/svg" xmlns:xlink="http://www.w3.org/1999/xlink" x="0px" y="0px"
	 viewBox="0 0 386.612 386.612" style="enable-background:new 0 0 386.612 386.612;" xml:space="preserve">
<path style="fill:#4DCFE0;" d="M193.306,0C86.727,0,0,86.727,0,193.306s86.727,193.306,193.306,193.306
	s193.306-86.727,193.306-193.306S299.886,0,193.306,0z"/>
<path style="fill:#00BBD3;" d="M267.494,129.045l-99.788,95.086l-47.543-49.11c-6.269-6.269-16.196-6.269-21.943-0.522
	c-6.269,6.269-6.269,16.196-0.522,21.943l58.514,60.082c3.135,3.135,7.314,4.702,10.971,4.702c3.657,0,7.837-1.567,10.971-4.18
	L289.437,151.51c6.269-5.747,6.792-15.673,0.522-21.943C283.69,123.298,273.763,123.298,267.494,129.045z"/>
<g>
</g>
<g>
</g>
<g>
</g>
<g>
</g>
<g>
</g>
<g>
</g>
<g>
</g>
<g>
</g>
<g>
</g>
<g>
</g>
<g>
</g>
<g>
</g>
<g>
</g>
<g>
</g>
<g>
</g>
</svg>
